<svg id="visual" viewBox="0 0 690 190" width="690" height="190" xmlns="http://www.w3.org/2000/svg" xmlns:xlink="http://www.w3.org/1999/xlink" version="1.1"><rect x="0" y="0" width="690" height="190" fill="#e2f3f5"></rect><defs><linearGradient id="grad1_0" x1="72.5%" y1="0%" x2="100%" y2="100%"><stop offset="-22.631578947368425%" stop-color="#e2f3f5" stop-opacity="1"></stop><stop offset="122.63157894736844%" stop-color="#e2f3f5" stop-opacity="1"></stop></linearGradient></defs><defs><linearGradient id="grad2_0" x1="0%" y1="0%" x2="27.5%" y2="100%"><stop offset="-22.631578947368425%" stop-color="#e2f3f5" stop-opacity="1"></stop><stop offset="122.63157894736844%" stop-color="#e2f3f5" stop-opacity="1"></stop></linearGradient></defs><g transform="translate(690, 0)"><path d="M0 123.5C-21.6 120.3 -43.2 117 -61.7 107C-80.3 96.9 -95.9 80 -105.7 61C-115.4 42 -119.5 21 -123.5 0L0 0Z" fill="#22d1ee"></path></g><g transform="translate(0, 190)"><path d="M0 -123.5C16.8 -112.1 33.5 -100.7 53 -91.8C72.5 -82.9 94.7 -76.6 107 -61.8C119.2 -46.9 121.3 -23.4 123.5 0L0 0Z" fill="#22d1ee"></path></g></svg>