<svg id="visual" viewBox="0 0 690 190" width="690" height="190" xmlns="http://www.w3.org/2000/svg" xmlns:xlink="http://www.w3.org/1999/xlink" version="1.1"><rect x="0" y="0" width="690" height="190" fill="#001220"></rect><defs><linearGradient id="grad1_0" x1="72.5%" y1="0%" x2="100%" y2="100%"><stop offset="-22.631578947368425%" stop-color="#fbae3c" stop-opacity="1"></stop><stop offset="122.63157894736844%" stop-color="#fbae3c" stop-opacity="1"></stop></linearGradient></defs><defs><linearGradient id="grad1_1" x1="72.5%" y1="0%" x2="100%" y2="100%"><stop offset="-22.631578947368425%" stop-color="#fbae3c" stop-opacity="1"></stop><stop offset="122.63157894736844%" stop-color="#f48350" stop-opacity="1"></stop></linearGradient></defs><defs><linearGradient id="grad1_2" x1="72.5%" y1="0%" x2="100%" y2="100%"><stop offset="-22.631578947368425%" stop-color="#d96162" stop-opacity="1"></stop><stop offset="122.63157894736844%" stop-color="#f48350" stop-opacity="1"></stop></linearGradient></defs><defs><linearGradient id="grad1_3" x1="72.5%" y1="0%" x2="100%" y2="100%"><stop offset="-22.631578947368425%" stop-color="#d96162" stop-opacity="1"></stop><stop offset="122.63157894736844%" stop-color="#af4b6d" stop-opacity="1"></stop></linearGradient></defs><defs><linearGradient id="grad1_4" x1="72.5%" y1="0%" x2="100%" y2="100%"><stop offset="-22.631578947368425%" stop-color="#7c3e6b" stop-opacity="1"></stop><stop offset="122.63157894736844%" stop-color="#af4b6d" stop-opacity="1"></stop></linearGradient></defs><defs><linearGradient id="grad1_5" x1="72.5%" y1="0%" x2="100%" y2="100%"><stop offset="-22.631578947368425%" stop-color="#7c3e6b" stop-opacity="1"></stop><stop offset="122.63157894736844%" stop-color="#49335c" stop-opacity="1"></stop></linearGradient></defs><defs><linearGradient id="grad1_6" x1="72.5%" y1="0%" x2="100%" y2="100%"><stop offset="-22.631578947368425%" stop-color="#1d2540" stop-opacity="1"></stop><stop offset="122.63157894736844%" stop-color="#49335c" stop-opacity="1"></stop></linearGradient></defs><defs><linearGradient id="grad1_7" x1="72.5%" y1="0%" x2="100%" y2="100%"><stop offset="-22.631578947368425%" stop-color="#1d2540" stop-opacity="1"></stop><stop offset="122.63157894736844%" stop-color="#001220" stop-opacity="1"></stop></linearGradient></defs><defs><linearGradient id="grad2_0" x1="0%" y1="0%" x2="27.5%" y2="100%"><stop offset="-22.631578947368425%" stop-color="#fbae3c" stop-opacity="1"></stop><stop offset="122.63157894736844%" stop-color="#fbae3c" stop-opacity="1"></stop></linearGradient></defs><defs><linearGradient id="grad2_1" x1="0%" y1="0%" x2="27.5%" y2="100%"><stop offset="-22.631578947368425%" stop-color="#f48350" stop-opacity="1"></stop><stop offset="122.63157894736844%" stop-color="#fbae3c" stop-opacity="1"></stop></linearGradient></defs><defs><linearGradient id="grad2_2" x1="0%" y1="0%" x2="27.5%" y2="100%"><stop offset="-22.631578947368425%" stop-color="#f48350" stop-opacity="1"></stop><stop offset="122.63157894736844%" stop-color="#d96162" stop-opacity="1"></stop></linearGradient></defs><defs><linearGradient id="grad2_3" x1="0%" y1="0%" x2="27.5%" y2="100%"><stop offset="-22.631578947368425%" stop-color="#af4b6d" stop-opacity="1"></stop><stop offset="122.63157894736844%" stop-color="#d96162" stop-opacity="1"></stop></linearGradient></defs><defs><linearGradient id="grad2_4" x1="0%" y1="0%" x2="27.5%" y2="100%"><stop offset="-22.631578947368425%" stop-color="#af4b6d" stop-opacity="1"></stop><stop offset="122.63157894736844%" stop-color="#7c3e6b" stop-opacity="1"></stop></linearGradient></defs><defs><linearGradient id="grad2_5" x1="0%" y1="0%" x2="27.5%" y2="100%"><stop offset="-22.631578947368425%" stop-color="#49335c" stop-opacity="1"></stop><stop offset="122.63157894736844%" stop-color="#7c3e6b" stop-opacity="1"></stop></linearGradient></defs><defs><linearGradient id="grad2_6" x1="0%" y1="0%" x2="27.5%" y2="100%"><stop offset="-22.631578947368425%" stop-color="#49335c" stop-opacity="1"></stop><stop offset="122.63157894736844%" stop-color="#1d2540" stop-opacity="1"></stop></linearGradient></defs><defs><linearGradient id="grad2_7" x1="0%" y1="0%" x2="27.5%" y2="100%"><stop offset="-22.631578947368425%" stop-color="#001220" stop-opacity="1"></stop><stop offset="122.63157894736844%" stop-color="#1d2540" stop-opacity="1"></stop></linearGradient></defs><g transform="translate(690, 0)"><path d="M0 171C-36.4 170.2 -72.7 169.5 -85.5 148.1C-98.3 126.7 -87.5 84.6 -97.9 56.5C-108.2 28.4 -139.6 14.2 -171 0L0 0Z" fill="#0c1c30"></path><path d="M0 149.6C-31.8 149 -63.6 148.3 -74.8 129.6C-86 110.8 -76.6 74 -85.6 49.4C-94.7 24.8 -122.1 12.4 -149.6 0L0 0Z" fill="#312c4f"></path><path d="M0 128.3C-27.3 127.7 -54.5 127.1 -64.1 111.1C-73.7 95 -65.7 63.5 -73.4 42.4C-81.1 21.3 -104.7 10.6 -128.2 0L0 0Z" fill="#623965"></path><path d="M0 106.9C-22.7 106.4 -45.4 105.9 -53.4 92.6C-61.4 79.2 -54.7 52.9 -61.2 35.3C-67.6 17.7 -87.2 8.9 -106.9 0L0 0Z" fill="#96446e"></path><path d="M0 85.5C-18.2 85.1 -36.4 84.7 -42.7 74C-49.1 63.3 -43.8 42.3 -48.9 28.3C-54.1 14.2 -69.8 7.1 -85.5 0L0 0Z" fill="#c55469"></path><path d="M0 64.1C-13.6 63.8 -27.3 63.6 -32.1 55.5C-36.9 47.5 -32.8 31.7 -36.7 21.2C-40.6 10.6 -52.3 5.3 -64.1 0L0 0Z" fill="#e9705a"></path><path d="M0 42.8C-9.1 42.6 -18.2 42.4 -21.4 37C-24.6 31.7 -21.9 21.2 -24.5 14.1C-27 7.1 -34.9 3.5 -42.7 0L0 0Z" fill="#fa9845"></path><path d="M0 21.4C-4.5 21.3 -9.1 21.2 -10.7 18.5C-12.3 15.8 -10.9 10.6 -12.2 7.1C-13.5 3.5 -17.4 1.8 -21.4 0L0 0Z" fill="#fbae3c"></path></g><g transform="translate(0, 190)"><path d="M0 -171C17.7 -145.6 35.3 -120.2 63 -109.1C90.7 -98 128.4 -101.3 148.1 -85.5C167.8 -69.7 169.4 -34.9 171 0L0 0Z" fill="#0c1c30"></path><path d="M0 -149.6C15.4 -127.4 30.9 -105.2 55.1 -95.5C79.4 -85.8 112.4 -88.6 129.6 -74.8C146.8 -61 148.2 -30.5 149.6 0L0 0Z" fill="#312c4f"></path><path d="M0 -128.2C13.2 -109.2 26.5 -90.1 47.2 -81.8C68 -73.5 96.3 -76 111.1 -64.1C125.8 -52.3 127 -26.1 128.3 0L0 0Z" fill="#623965"></path><path d="M0 -106.9C11 -91 22.1 -75.1 39.4 -68.2C56.7 -61.3 80.3 -63.3 92.6 -53.4C104.9 -43.6 105.9 -21.8 106.9 0L0 0Z" fill="#96446e"></path><path d="M0 -85.5C8.8 -72.8 17.7 -60.1 31.5 -54.6C45.3 -49 64.2 -50.6 74 -42.8C83.9 -34.9 84.7 -17.4 85.5 0L0 0Z" fill="#c55469"></path><path d="M0 -64.1C6.6 -54.6 13.2 -45.1 23.6 -40.9C34 -36.8 48.2 -38 55.5 -32.1C62.9 -26.1 63.5 -13.1 64.1 0L0 0Z" fill="#e9705a"></path><path d="M0 -42.7C4.4 -36.4 8.8 -30 15.7 -27.3C22.7 -24.5 32.1 -25.3 37 -21.4C41.9 -17.4 42.3 -8.7 42.8 0L0 0Z" fill="#fa9845"></path><path d="M0 -21.4C2.2 -18.2 4.4 -15 7.9 -13.6C11.3 -12.3 16.1 -12.7 18.5 -10.7C21 -8.7 21.2 -4.4 21.4 0L0 0Z" fill="#fbae3c"></path></g></svg>