<svg id="visual" viewBox="0 0 690 190" width="690" height="190" xmlns="http://www.w3.org/2000/svg" xmlns:xlink="http://www.w3.org/1999/xlink" version="1.1"><rect x="0" y="0" width="690" height="190" fill="#001122"></rect><defs><linearGradient id="grad1_0" x1="72.5%" y1="0%" x2="100%" y2="100%"><stop offset="-22.631578947368425%" stop-color="#571b97" stop-opacity="1"></stop><stop offset="122.63157894736844%" stop-color="#571b97" stop-opacity="1"></stop></linearGradient></defs><defs><linearGradient id="grad1_1" x1="72.5%" y1="0%" x2="100%" y2="100%"><stop offset="-22.631578947368425%" stop-color="#571b97" stop-opacity="1"></stop><stop offset="122.63157894736844%" stop-color="#001122" stop-opacity="1"></stop></linearGradient></defs><defs><linearGradient id="grad2_0" x1="0%" y1="0%" x2="27.5%" y2="100%"><stop offset="-22.631578947368425%" stop-color="#571b97" stop-opacity="1"></stop><stop offset="122.63157894736844%" stop-color="#571b97" stop-opacity="1"></stop></linearGradient></defs><defs><linearGradient id="grad2_1" x1="0%" y1="0%" x2="27.5%" y2="100%"><stop offset="-22.631578947368425%" stop-color="#001122" stop-opacity="1"></stop><stop offset="122.63157894736844%" stop-color="#571b97" stop-opacity="1"></stop></linearGradient></defs><g transform="translate(690, 0)"><path d="M0 133C-15.6 116.5 -31.2 100 -52.5 90.9C-73.8 81.9 -100.8 80.4 -115.2 66.5C-129.5 52.6 -131.3 26.3 -133 0L0 0Z" fill="#002463"></path><path d="M0 66.5C-7.8 58.2 -15.6 50 -26.2 45.5C-36.9 41 -50.4 40.2 -57.6 33.3C-64.8 26.3 -65.6 13.1 -66.5 0L0 0Z" fill="#571b97"></path></g><g transform="translate(0, 190)"><path d="M0 -133C25.8 -131 51.7 -129 66.5 -115.2C81.3 -101.3 85.1 -75.7 94.4 -54.5C103.6 -33.3 118.3 -16.7 133 0L0 0Z" fill="#002463"></path><path d="M0 -66.5C12.9 -65.5 25.8 -64.5 33.2 -57.6C40.7 -50.7 42.6 -37.8 47.2 -27.3C51.8 -16.7 59.2 -8.3 66.5 0L0 0Z" fill="#571b97"></path></g></svg>