<svg id="visual" viewBox="0 0 690 190" width="690" height="190" xmlns="http://www.w3.org/2000/svg" xmlns:xlink="http://www.w3.org/1999/xlink" version="1.1"><rect x="0" y="0" width="690" height="190" fill="#e2f3f5"></rect><defs><linearGradient id="grad1_0" x1="72.5%" y1="100%" x2="100%" y2="0%"><stop offset="-22.631578947368425%" stop-color="#e2f3f5" stop-opacity="1"></stop><stop offset="122.63157894736844%" stop-color="#e2f3f5" stop-opacity="1"></stop></linearGradient></defs><defs><linearGradient id="grad2_0" x1="0%" y1="100%" x2="27.5%" y2="0%"><stop offset="-22.631578947368425%" stop-color="#e2f3f5" stop-opacity="1"></stop><stop offset="122.63157894736844%" stop-color="#e2f3f5" stop-opacity="1"></stop></linearGradient></defs><g transform="translate(690, 190)"><path d="M-123.5 0C-120.3 -21.6 -117 -43.2 -107 -61.8C-96.9 -80.3 -80 -95.9 -61 -105.7C-42 -115.4 -21 -119.5 0 -123.5L0 0Z" fill="#22d1ee"></path></g><g transform="translate(0, 0)"><path d="M123.5 0C112.1 16.8 100.7 33.5 91.8 53C82.9 72.5 76.6 94.7 61.8 107C46.9 119.2 23.4 121.3 0 123.5L0 0Z" fill="#22d1ee"></path></g></svg>