<svg id="visual" viewBox="0 0 900 600" width="900" height="600" xmlns="http://www.w3.org/2000/svg" xmlns:xlink="http://www.w3.org/1999/xlink" version="1.1"><rect x="0" y="0" width="900" height="600" fill="#1a5276"></rect><defs><linearGradient id="grad1_0" x1="33.3%" y1="0%" x2="100%" y2="100%"><stop offset="20%" stop-color="#1a5276" stop-opacity="1"></stop><stop offset="80%" stop-color="#1a5276" stop-opacity="1"></stop></linearGradient></defs><defs><linearGradient id="grad2_0" x1="0%" y1="0%" x2="66.7%" y2="100%"><stop offset="20%" stop-color="#1a5276" stop-opacity="1"></stop><stop offset="80%" stop-color="#1a5276" stop-opacity="1"></stop></linearGradient></defs><g transform="translate(900, 0)"><path d="M0 378.6C-58.4 382.1 -116.8 385.6 -144.9 349.8C-172.9 314 -170.6 238.8 -201.5 201.5C-232.4 164.2 -296.6 164.7 -331.7 137.4C-366.7 110.1 -372.7 55 -378.6 0L0 0Z" fill="#85c1e9"></path></g><g transform="translate(0, 600)"><path d="M0 -378.6C53.1 -373 106.1 -367.4 140.4 -339.1C174.8 -310.8 190.4 -259.8 227 -227C263.5 -194.2 321 -179.7 349.8 -144.9C378.5 -110.1 378.6 -55 378.6 0L0 0Z" fill="#85c1e9"></path></g></svg>