<svg id="visual" viewBox="0 0 690 190" width="690" height="190" xmlns="http://www.w3.org/2000/svg" xmlns:xlink="http://www.w3.org/1999/xlink" version="1.1"><rect x="0" y="0" width="690" height="190" fill="#e2f3f5"></rect><defs><linearGradient id="grad1_0" x1="72.5%" y1="0%" x2="100%" y2="100%"><stop offset="-22.631578947368425%" stop-color="#e2f3f5" stop-opacity="1"></stop><stop offset="122.63157894736844%" stop-color="#e2f3f5" stop-opacity="1"></stop></linearGradient></defs><defs><linearGradient id="grad2_0" x1="0%" y1="0%" x2="27.5%" y2="100%"><stop offset="-22.631578947368425%" stop-color="#e2f3f5" stop-opacity="1"></stop><stop offset="122.63157894736844%" stop-color="#e2f3f5" stop-opacity="1"></stop></linearGradient></defs><g transform="translate(690, 0)"><path d="M0 133C-20.4 124.8 -40.8 116.6 -61.5 106.5C-82.2 96.5 -103.2 84.6 -115.2 66.5C-127.1 48.4 -130.1 24.2 -133 0L0 0Z" fill="#1cb5d0"></path></g><g transform="translate(0, 190)"><path d="M0 -133C22.5 -128.5 45.1 -124 65.5 -113.4C85.9 -102.9 104.3 -86.4 115.2 -66.5C126.1 -46.6 129.5 -23.3 133 0L0 0Z" fill="#1cb5d0"></path></g></svg>