<svg id="visual" viewBox="0 0 690 190" width="690" height="190" xmlns="http://www.w3.org/2000/svg" xmlns:xlink="http://www.w3.org/1999/xlink" version="1.1"><rect x="0" y="0" width="690" height="190" fill="#9a9a9a"></rect><defs><linearGradient id="grad1_0" x1="72.5%" y1="0%" x2="100%" y2="100%"><stop offset="-22.631578947368425%" stop-color="#020616" stop-opacity="1"></stop><stop offset="122.63157894736844%" stop-color="#020616" stop-opacity="1"></stop></linearGradient></defs><defs><linearGradient id="grad1_1" x1="72.5%" y1="0%" x2="100%" y2="100%"><stop offset="-22.631578947368425%" stop-color="#020616" stop-opacity="1"></stop><stop offset="122.63157894736844%" stop-color="#1a1d26" stop-opacity="1"></stop></linearGradient></defs><defs><linearGradient id="grad1_2" x1="72.5%" y1="0%" x2="100%" y2="100%"><stop offset="-22.631578947368425%" stop-color="#2d2f38" stop-opacity="1"></stop><stop offset="122.63157894736844%" stop-color="#1a1d26" stop-opacity="1"></stop></linearGradient></defs><defs><linearGradient id="grad1_3" x1="72.5%" y1="0%" x2="100%" y2="100%"><stop offset="-22.631578947368425%" stop-color="#2d2f38" stop-opacity="1"></stop><stop offset="122.63157894736844%" stop-color="#41434a" stop-opacity="1"></stop></linearGradient></defs><defs><linearGradient id="grad1_4" x1="72.5%" y1="0%" x2="100%" y2="100%"><stop offset="-22.631578947368425%" stop-color="#56575d" stop-opacity="1"></stop><stop offset="122.63157894736844%" stop-color="#41434a" stop-opacity="1"></stop></linearGradient></defs><defs><linearGradient id="grad1_5" x1="72.5%" y1="0%" x2="100%" y2="100%"><stop offset="-22.631578947368425%" stop-color="#56575d" stop-opacity="1"></stop><stop offset="122.63157894736844%" stop-color="#6c6d71" stop-opacity="1"></stop></linearGradient></defs><defs><linearGradient id="grad1_6" x1="72.5%" y1="0%" x2="100%" y2="100%"><stop offset="-22.631578947368425%" stop-color="#838385" stop-opacity="1"></stop><stop offset="122.63157894736844%" stop-color="#6c6d71" stop-opacity="1"></stop></linearGradient></defs><defs><linearGradient id="grad1_7" x1="72.5%" y1="0%" x2="100%" y2="100%"><stop offset="-22.631578947368425%" stop-color="#838385" stop-opacity="1"></stop><stop offset="122.63157894736844%" stop-color="#9a9a9a" stop-opacity="1"></stop></linearGradient></defs><defs><linearGradient id="grad2_0" x1="0%" y1="0%" x2="27.5%" y2="100%"><stop offset="-22.631578947368425%" stop-color="#020616" stop-opacity="1"></stop><stop offset="122.63157894736844%" stop-color="#020616" stop-opacity="1"></stop></linearGradient></defs><defs><linearGradient id="grad2_1" x1="0%" y1="0%" x2="27.5%" y2="100%"><stop offset="-22.631578947368425%" stop-color="#1a1d26" stop-opacity="1"></stop><stop offset="122.63157894736844%" stop-color="#020616" stop-opacity="1"></stop></linearGradient></defs><defs><linearGradient id="grad2_2" x1="0%" y1="0%" x2="27.5%" y2="100%"><stop offset="-22.631578947368425%" stop-color="#1a1d26" stop-opacity="1"></stop><stop offset="122.63157894736844%" stop-color="#2d2f38" stop-opacity="1"></stop></linearGradient></defs><defs><linearGradient id="grad2_3" x1="0%" y1="0%" x2="27.5%" y2="100%"><stop offset="-22.631578947368425%" stop-color="#41434a" stop-opacity="1"></stop><stop offset="122.63157894736844%" stop-color="#2d2f38" stop-opacity="1"></stop></linearGradient></defs><defs><linearGradient id="grad2_4" x1="0%" y1="0%" x2="27.5%" y2="100%"><stop offset="-22.631578947368425%" stop-color="#41434a" stop-opacity="1"></stop><stop offset="122.63157894736844%" stop-color="#56575d" stop-opacity="1"></stop></linearGradient></defs><defs><linearGradient id="grad2_5" x1="0%" y1="0%" x2="27.5%" y2="100%"><stop offset="-22.631578947368425%" stop-color="#6c6d71" stop-opacity="1"></stop><stop offset="122.63157894736844%" stop-color="#56575d" stop-opacity="1"></stop></linearGradient></defs><defs><linearGradient id="grad2_6" x1="0%" y1="0%" x2="27.5%" y2="100%"><stop offset="-22.631578947368425%" stop-color="#6c6d71" stop-opacity="1"></stop><stop offset="122.63157894736844%" stop-color="#838385" stop-opacity="1"></stop></linearGradient></defs><defs><linearGradient id="grad2_7" x1="0%" y1="0%" x2="27.5%" y2="100%"><stop offset="-22.631578947368425%" stop-color="#9a9a9a" stop-opacity="1"></stop><stop offset="122.63157894736844%" stop-color="#838385" stop-opacity="1"></stop></linearGradient></defs><g transform="translate(690, 0)"><path d="M0 171C-22.5 169.1 -45 167.2 -65.4 158C-85.9 148.7 -104.3 132.1 -113.1 113.1C-122 94.2 -121.3 72.8 -129.3 53.6C-137.4 34.3 -154.2 17.2 -171 0L0 0Z" fill="#8e8e8f"></path><path d="M0 149.6C-19.7 148 -39.4 146.3 -57.3 138.2C-75.2 130.1 -91.3 115.6 -99 99C-106.7 82.4 -106.1 63.7 -113.2 46.9C-120.2 30 -134.9 15 -149.6 0L0 0Z" fill="#77787b"></path><path d="M0 128.3C-16.9 126.8 -33.7 125.4 -49.1 118.5C-64.4 111.5 -78.2 99.1 -84.9 84.9C-91.5 70.6 -91 54.6 -97 40.2C-103 25.7 -115.6 12.9 -128.2 0L0 0Z" fill="#616267"></path><path d="M0 106.9C-14.1 105.7 -28.1 104.5 -40.9 98.7C-53.7 93 -65.2 82.6 -70.7 70.7C-76.2 58.9 -75.8 45.5 -80.8 33.5C-85.9 21.5 -96.4 10.7 -106.9 0L0 0Z" fill="#4b4d53"></path><path d="M0 85.5C-11.2 84.6 -22.5 83.6 -32.7 79C-42.9 74.4 -52.1 66.1 -56.6 56.6C-61 47.1 -60.6 36.4 -64.7 26.8C-68.7 17.2 -77.1 8.6 -85.5 0L0 0Z" fill="#373941"></path><path d="M0 64.1C-8.4 63.4 -16.9 62.7 -24.5 59.2C-32.2 55.8 -39.1 49.5 -42.4 42.4C-45.7 35.3 -45.5 27.3 -48.5 20.1C-51.5 12.9 -57.8 6.4 -64.1 0L0 0Z" fill="#23262f"></path><path d="M0 42.8C-5.6 42.3 -11.2 41.8 -16.4 39.5C-21.5 37.2 -26.1 33 -28.3 28.3C-30.5 23.5 -30.3 18.2 -32.3 13.4C-34.3 8.6 -38.5 4.3 -42.7 0L0 0Z" fill="#11131e"></path><path d="M0 21.4C-2.8 21.1 -5.6 20.9 -8.2 19.7C-10.7 18.6 -13 16.5 -14.1 14.1C-15.2 11.8 -15.2 9.1 -16.2 6.7C-17.2 4.3 -19.3 2.1 -21.4 0L0 0Z" fill="#020616"></path></g><g transform="translate(0, 190)"><path d="M0 -171C24.2 -170.7 48.4 -170.3 65.4 -158C82.5 -145.7 92.3 -121.4 103.2 -103.2C114.2 -85.1 126.2 -73.2 137.7 -57C149.1 -40.8 160.1 -20.4 171 0L0 0Z" fill="#8e8e8f"></path><path d="M0 -149.6C21.2 -149.3 42.4 -149 57.3 -138.2C72.2 -127.5 80.8 -106.2 90.3 -90.3C99.9 -74.5 110.4 -64 120.5 -49.9C130.5 -35.7 140.1 -17.9 149.6 0L0 0Z" fill="#77787b"></path><path d="M0 -128.2C18.2 -128 36.3 -127.7 49.1 -118.5C61.8 -109.2 69.2 -91 77.4 -77.4C85.6 -63.8 94.6 -54.9 103.2 -42.8C111.8 -30.6 120 -15.3 128.3 0L0 0Z" fill="#616267"></path><path d="M0 -106.9C15.1 -106.7 30.3 -106.4 40.9 -98.7C51.5 -91 57.7 -75.8 64.5 -64.5C71.4 -53.2 78.9 -45.7 86 -35.6C93.2 -25.5 100 -12.8 106.9 0L0 0Z" fill="#4b4d53"></path><path d="M0 -85.5C12.1 -85.3 24.2 -85.2 32.7 -79C41.2 -72.8 46.2 -60.7 51.6 -51.6C57.1 -42.6 63.1 -36.6 68.8 -28.5C74.6 -20.4 80 -10.2 85.5 0L0 0Z" fill="#373941"></path><path d="M0 -64.1C9.1 -64 18.2 -63.9 24.5 -59.2C30.9 -54.6 34.6 -45.5 38.7 -38.7C42.8 -31.9 47.3 -27.4 51.6 -21.4C55.9 -15.3 60 -7.7 64.1 0L0 0Z" fill="#23262f"></path><path d="M0 -42.7C6.1 -42.7 12.1 -42.6 16.4 -39.5C20.6 -36.4 23.1 -30.3 25.8 -25.8C28.5 -21.3 31.5 -18.3 34.4 -14.3C37.3 -10.2 40 -5.1 42.8 0L0 0Z" fill="#11131e"></path><path d="M0 -21.4C3 -21.3 6.1 -21.3 8.2 -19.7C10.3 -18.2 11.5 -15.2 12.9 -12.9C14.3 -10.6 15.8 -9.1 17.2 -7.1C18.6 -5.1 20 -2.6 21.4 0L0 0Z" fill="#020616"></path></g></svg>