<svg id="visual" viewBox="0 0 690 190" width="690" height="190" xmlns="http://www.w3.org/2000/svg" xmlns:xlink="http://www.w3.org/1999/xlink" version="1.1"><rect x="0" y="0" width="690" height="190" fill="#e2f3f5"></rect><defs><linearGradient id="grad1_0" x1="72.5%" y1="100%" x2="100%" y2="0%"><stop offset="-22.631578947368425%" stop-color="#e2f3f5" stop-opacity="1"></stop><stop offset="122.63157894736844%" stop-color="#e2f3f5" stop-opacity="1"></stop></linearGradient></defs><defs><linearGradient id="grad2_0" x1="0%" y1="100%" x2="27.5%" y2="0%"><stop offset="-22.631578947368425%" stop-color="#e2f3f5" stop-opacity="1"></stop><stop offset="122.63157894736844%" stop-color="#e2f3f5" stop-opacity="1"></stop></linearGradient></defs><g transform="translate(690, 190)"><path d="M-133 0C-129.8 -23.8 -126.6 -47.5 -115.2 -66.5C-103.7 -85.5 -84.1 -99.7 -63.5 -110C-42.9 -120.3 -21.5 -126.6 0 -133L0 0Z" fill="#6a379a"></path></g><g transform="translate(0, 0)"><path d="M133 0C131.1 26.1 129.3 52.1 115.2 66.5C101.1 80.9 74.7 83.5 53.5 92.7C32.3 101.8 16.1 117.4 0 133L0 0Z" fill="#6a379a"></path></g></svg>