<svg id="visual" viewBox="0 0 900 600" width="900" height="600"
  xmlns="http://www.w3.org/2000/svg"
  xmlns:xlink="http://www.w3.org/1999/xlink" version="1.1">
  <rect x="0" y="0" width="900" height="600" fill="#001220"></rect>
  <defs>
    <linearGradient id="grad1_0" x1="33.3%" y1="0%" x2="100%" y2="100%">
      <stop offset="20%" stop-color="#001220" stop-opacity="1"></stop>
      <stop offset="80%" stop-color="#001220" stop-opacity="1"></stop>
    </linearGradient>
  </defs>
  <defs>
    <linearGradient id="grad2_0" x1="0%" y1="0%" x2="66.7%" y2="100%">
      <stop offset="20%" stop-color="#001220" stop-opacity="1"></stop>
      <stop offset="80%" stop-color="#001220" stop-opacity="1"></stop>
    </linearGradient>
  </defs>
  <g transform="translate(900, 0)">
    <path d="M0 432.7C-52.2 402.9 -104.4 373.2 -140.8 340C-177.3 306.8 -198 270.2 -244.7 244.7C-291.4 219.1 -364.1 204.5 -399.7 165.6C-435.4 126.6 -434 63.3 -432.7 0L0 0Z" fill="#FBAE3C"></path>
  </g>
  <g transform="translate(0, 600)">
    <path d="M0 -432.7C56.3 -427.1 112.7 -421.6 165.6 -399.7C218.5 -377.9 267.9 -339.7 292.7 -292.7C317.6 -245.8 318 -189.9 337.2 -139.7C356.4 -89.4 394.6 -44.7 432.7 0L0 0Z" fill="#FBAE3C"></path>
  </g>
</svg>
