<svg id="visual" viewBox="0 0 690 190" width="690" height="190" xmlns="http://www.w3.org/2000/svg" xmlns:xlink="http://www.w3.org/1999/xlink" version="1.1"><rect x="0" y="0" width="690" height="190" fill="#001122"></rect><defs><linearGradient id="grad1_0" x1="72.5%" y1="100%" x2="100%" y2="0%"><stop offset="-22.631578947368425%" stop-color="#571b97" stop-opacity="1"></stop><stop offset="122.63157894736844%" stop-color="#571b97" stop-opacity="1"></stop></linearGradient></defs><defs><linearGradient id="grad1_1" x1="72.5%" y1="100%" x2="100%" y2="0%"><stop offset="-22.631578947368425%" stop-color="#571b97" stop-opacity="1"></stop><stop offset="122.63157894736844%" stop-color="#001122" stop-opacity="1"></stop></linearGradient></defs><defs><linearGradient id="grad2_0" x1="0%" y1="100%" x2="27.5%" y2="0%"><stop offset="-22.631578947368425%" stop-color="#571b97" stop-opacity="1"></stop><stop offset="122.63157894736844%" stop-color="#571b97" stop-opacity="1"></stop></linearGradient></defs><defs><linearGradient id="grad2_1" x1="0%" y1="100%" x2="27.5%" y2="0%"><stop offset="-22.631578947368425%" stop-color="#001122" stop-opacity="1"></stop><stop offset="122.63157894736844%" stop-color="#571b97" stop-opacity="1"></stop></linearGradient></defs><g transform="translate(690, 190)"><path d="M-133 0C-116.5 -15.6 -100 -31.2 -90.9 -52.5C-81.9 -73.8 -80.4 -100.8 -66.5 -115.2C-52.6 -129.5 -26.3 -131.3 0 -133L0 0Z" fill="#002463"></path><path d="M-66.5 0C-58.2 -7.8 -50 -15.6 -45.5 -26.3C-41 -36.9 -40.2 -50.4 -33.3 -57.6C-26.3 -64.8 -13.1 -65.6 0 -66.5L0 0Z" fill="#571b97"></path></g><g transform="translate(0, 0)"><path d="M133 0C131 25.8 129 51.7 115.2 66.5C101.3 81.3 75.7 85.1 54.5 94.4C33.3 103.6 16.7 118.3 0 133L0 0Z" fill="#002463"></path><path d="M66.5 0C65.5 12.9 64.5 25.8 57.6 33.2C50.7 40.7 37.8 42.6 27.3 47.2C16.7 51.8 8.3 59.2 0 66.5L0 0Z" fill="#571b97"></path></g></svg>