<svg id="visual" viewBox="0 0 690 190" width="690" height="190" xmlns="http://www.w3.org/2000/svg" xmlns:xlink="http://www.w3.org/1999/xlink" version="1.1"><rect x="0" y="0" width="690" height="190" fill="#001220"></rect><defs><linearGradient id="grad1_0" x1="72.5%" y1="100%" x2="100%" y2="0%"><stop offset="-22.631578947368425%" stop-color="#fbae3c" stop-opacity="1"></stop><stop offset="122.63157894736844%" stop-color="#fbae3c" stop-opacity="1"></stop></linearGradient></defs><defs><linearGradient id="grad1_1" x1="72.5%" y1="100%" x2="100%" y2="0%"><stop offset="-22.631578947368425%" stop-color="#fbae3c" stop-opacity="1"></stop><stop offset="122.63157894736844%" stop-color="#f48350" stop-opacity="1"></stop></linearGradient></defs><defs><linearGradient id="grad1_2" x1="72.5%" y1="100%" x2="100%" y2="0%"><stop offset="-22.631578947368425%" stop-color="#d96162" stop-opacity="1"></stop><stop offset="122.63157894736844%" stop-color="#f48350" stop-opacity="1"></stop></linearGradient></defs><defs><linearGradient id="grad1_3" x1="72.5%" y1="100%" x2="100%" y2="0%"><stop offset="-22.631578947368425%" stop-color="#d96162" stop-opacity="1"></stop><stop offset="122.63157894736844%" stop-color="#af4b6d" stop-opacity="1"></stop></linearGradient></defs><defs><linearGradient id="grad1_4" x1="72.5%" y1="100%" x2="100%" y2="0%"><stop offset="-22.631578947368425%" stop-color="#7c3e6b" stop-opacity="1"></stop><stop offset="122.63157894736844%" stop-color="#af4b6d" stop-opacity="1"></stop></linearGradient></defs><defs><linearGradient id="grad1_5" x1="72.5%" y1="100%" x2="100%" y2="0%"><stop offset="-22.631578947368425%" stop-color="#7c3e6b" stop-opacity="1"></stop><stop offset="122.63157894736844%" stop-color="#49335c" stop-opacity="1"></stop></linearGradient></defs><defs><linearGradient id="grad1_6" x1="72.5%" y1="100%" x2="100%" y2="0%"><stop offset="-22.631578947368425%" stop-color="#1d2540" stop-opacity="1"></stop><stop offset="122.63157894736844%" stop-color="#49335c" stop-opacity="1"></stop></linearGradient></defs><defs><linearGradient id="grad1_7" x1="72.5%" y1="100%" x2="100%" y2="0%"><stop offset="-22.631578947368425%" stop-color="#1d2540" stop-opacity="1"></stop><stop offset="122.63157894736844%" stop-color="#001220" stop-opacity="1"></stop></linearGradient></defs><defs><linearGradient id="grad2_0" x1="0%" y1="100%" x2="27.5%" y2="0%"><stop offset="-22.631578947368425%" stop-color="#fbae3c" stop-opacity="1"></stop><stop offset="122.63157894736844%" stop-color="#fbae3c" stop-opacity="1"></stop></linearGradient></defs><defs><linearGradient id="grad2_1" x1="0%" y1="100%" x2="27.5%" y2="0%"><stop offset="-22.631578947368425%" stop-color="#f48350" stop-opacity="1"></stop><stop offset="122.63157894736844%" stop-color="#fbae3c" stop-opacity="1"></stop></linearGradient></defs><defs><linearGradient id="grad2_2" x1="0%" y1="100%" x2="27.5%" y2="0%"><stop offset="-22.631578947368425%" stop-color="#f48350" stop-opacity="1"></stop><stop offset="122.63157894736844%" stop-color="#d96162" stop-opacity="1"></stop></linearGradient></defs><defs><linearGradient id="grad2_3" x1="0%" y1="100%" x2="27.5%" y2="0%"><stop offset="-22.631578947368425%" stop-color="#af4b6d" stop-opacity="1"></stop><stop offset="122.63157894736844%" stop-color="#d96162" stop-opacity="1"></stop></linearGradient></defs><defs><linearGradient id="grad2_4" x1="0%" y1="100%" x2="27.5%" y2="0%"><stop offset="-22.631578947368425%" stop-color="#af4b6d" stop-opacity="1"></stop><stop offset="122.63157894736844%" stop-color="#7c3e6b" stop-opacity="1"></stop></linearGradient></defs><defs><linearGradient id="grad2_5" x1="0%" y1="100%" x2="27.5%" y2="0%"><stop offset="-22.631578947368425%" stop-color="#49335c" stop-opacity="1"></stop><stop offset="122.63157894736844%" stop-color="#7c3e6b" stop-opacity="1"></stop></linearGradient></defs><defs><linearGradient id="grad2_6" x1="0%" y1="100%" x2="27.5%" y2="0%"><stop offset="-22.631578947368425%" stop-color="#49335c" stop-opacity="1"></stop><stop offset="122.63157894736844%" stop-color="#1d2540" stop-opacity="1"></stop></linearGradient></defs><defs><linearGradient id="grad2_7" x1="0%" y1="100%" x2="27.5%" y2="0%"><stop offset="-22.631578947368425%" stop-color="#001220" stop-opacity="1"></stop><stop offset="122.63157894736844%" stop-color="#1d2540" stop-opacity="1"></stop></linearGradient></defs><g transform="translate(690, 190)"><path d="M-171 0C-170.2 -36.4 -169.5 -72.7 -148.1 -85.5C-126.7 -98.3 -84.6 -87.5 -56.5 -97.9C-28.4 -108.2 -14.2 -139.6 0 -171L0 0Z" fill="#0c1c30"></path><path d="M-149.6 0C-149 -31.8 -148.3 -63.6 -129.6 -74.8C-110.8 -86 -74 -76.6 -49.4 -85.6C-24.8 -94.7 -12.4 -122.1 0 -149.6L0 0Z" fill="#312c4f"></path><path d="M-128.2 0C-127.7 -27.3 -127.1 -54.5 -111.1 -64.1C-95 -73.7 -63.5 -65.7 -42.4 -73.4C-21.3 -81.1 -10.6 -104.7 0 -128.2L0 0Z" fill="#623965"></path><path d="M-106.9 0C-106.4 -22.7 -105.9 -45.4 -92.6 -53.4C-79.2 -61.4 -52.9 -54.7 -35.3 -61.2C-17.7 -67.6 -8.9 -87.2 0 -106.9L0 0Z" fill="#96446e"></path><path d="M-85.5 0C-85.1 -18.2 -84.7 -36.4 -74 -42.8C-63.3 -49.1 -42.3 -43.8 -28.3 -48.9C-14.2 -54.1 -7.1 -69.8 0 -85.5L0 0Z" fill="#c55469"></path><path d="M-64.1 0C-63.8 -13.6 -63.6 -27.3 -55.5 -32.1C-47.5 -36.9 -31.7 -32.8 -21.2 -36.7C-10.6 -40.6 -5.3 -52.3 0 -64.1L0 0Z" fill="#e9705a"></path><path d="M-42.7 0C-42.6 -9.1 -42.4 -18.2 -37 -21.4C-31.7 -24.6 -21.2 -21.9 -14.1 -24.5C-7.1 -27 -3.5 -34.9 0 -42.7L0 0Z" fill="#fa9845"></path><path d="M-21.4 0C-21.3 -4.5 -21.2 -9.1 -18.5 -10.7C-15.8 -12.3 -10.6 -10.9 -7.1 -12.2C-3.5 -13.5 -1.8 -17.4 0 -21.4L0 0Z" fill="#fbae3c"></path></g><g transform="translate(0, 0)"><path d="M171 0C145.6 17.7 120.2 35.3 109.1 63C98 90.7 101.3 128.4 85.5 148.1C69.7 167.8 34.9 169.4 0 171L0 0Z" fill="#0c1c30"></path><path d="M149.6 0C127.4 15.4 105.2 30.9 95.5 55.1C85.8 79.4 88.6 112.4 74.8 129.6C61 146.8 30.5 148.2 0 149.6L0 0Z" fill="#312c4f"></path><path d="M128.3 0C109.2 13.2 90.1 26.5 81.8 47.2C73.5 68 76 96.3 64.1 111.1C52.3 125.8 26.1 127 0 128.3L0 0Z" fill="#623965"></path><path d="M106.9 0C91 11 75.1 22.1 68.2 39.4C61.3 56.7 63.3 80.3 53.4 92.6C43.6 104.9 21.8 105.9 0 106.9L0 0Z" fill="#96446e"></path><path d="M85.5 0C72.8 8.8 60.1 17.7 54.6 31.5C49 45.3 50.6 64.2 42.8 74C34.9 83.9 17.4 84.7 0 85.5L0 0Z" fill="#c55469"></path><path d="M64.1 0C54.6 6.6 45.1 13.2 40.9 23.6C36.8 34 38 48.2 32.1 55.5C26.1 62.9 13.1 63.5 0 64.1L0 0Z" fill="#e9705a"></path><path d="M42.8 0C36.4 4.4 30 8.8 27.3 15.7C24.5 22.7 25.3 32.1 21.4 37C17.4 41.9 8.7 42.3 0 42.8L0 0Z" fill="#fa9845"></path><path d="M21.4 0C18.2 2.2 15 4.4 13.6 7.9C12.3 11.3 12.7 16.1 10.7 18.5C8.7 21 4.4 21.2 0 21.4L0 0Z" fill="#fbae3c"></path></g></svg>