<svg id="visual" viewBox="0 0 690 190" width="690" height="190" xmlns="http://www.w3.org/2000/svg" xmlns:xlink="http://www.w3.org/1999/xlink" version="1.1"><rect x="0" y="0" width="690" height="190" fill="#e2f3f5"></rect><defs><linearGradient id="grad1_0" x1="72.5%" y1="100%" x2="100%" y2="0%"><stop offset="-22.631578947368425%" stop-color="#e2f3f5" stop-opacity="1"></stop><stop offset="122.63157894736844%" stop-color="#e2f3f5" stop-opacity="1"></stop></linearGradient></defs><defs><linearGradient id="grad2_0" x1="0%" y1="100%" x2="27.5%" y2="0%"><stop offset="-22.631578947368425%" stop-color="#e2f3f5" stop-opacity="1"></stop><stop offset="122.63157894736844%" stop-color="#e2f3f5" stop-opacity="1"></stop></linearGradient></defs><g transform="translate(690, 190)"><path d="M-133 0C-124.8 -20.4 -116.6 -40.8 -106.5 -61.5C-96.5 -82.2 -84.6 -103.2 -66.5 -115.2C-48.4 -127.1 -24.2 -130.1 0 -133L0 0Z" fill="#1cb5d0"></path></g><g transform="translate(0, 0)"><path d="M133 0C128.5 22.5 124 45.1 113.4 65.5C102.9 85.9 86.4 104.3 66.5 115.2C46.6 126.1 23.3 129.5 0 133L0 0Z" fill="#1cb5d0"></path></g></svg>