<svg id="visual" viewBox="0 0 690 190" width="690" height="190" xmlns="http://www.w3.org/2000/svg" xmlns:xlink="http://www.w3.org/1999/xlink" version="1.1"><rect x="0" y="0" width="690" height="190" fill="#e2f3f5"></rect><defs><linearGradient id="grad1_0" x1="72.5%" y1="0%" x2="100%" y2="100%"><stop offset="-22.631578947368425%" stop-color="#e2f3f5" stop-opacity="1"></stop><stop offset="122.63157894736844%" stop-color="#e2f3f5" stop-opacity="1"></stop></linearGradient></defs><defs><linearGradient id="grad2_0" x1="0%" y1="0%" x2="27.5%" y2="100%"><stop offset="-22.631578947368425%" stop-color="#e2f3f5" stop-opacity="1"></stop><stop offset="122.63157894736844%" stop-color="#e2f3f5" stop-opacity="1"></stop></linearGradient></defs><g transform="translate(690, 0)"><path d="M0 133C-23.8 129.8 -47.5 126.6 -66.5 115.2C-85.5 103.7 -99.7 84.1 -110 63.5C-120.3 42.9 -126.6 21.5 -133 0L0 0Z" fill="#6a379a"></path></g><g transform="translate(0, 190)"><path d="M0 -133C26.1 -131.1 52.1 -129.3 66.5 -115.2C80.9 -101.1 83.5 -74.7 92.7 -53.5C101.8 -32.3 117.4 -16.1 133 0L0 0Z" fill="#6a379a"></path></g></svg>