<svg id="visual" viewBox="0 0 690 190" width="690" height="190" xmlns="http://www.w3.org/2000/svg" xmlns:xlink="http://www.w3.org/1999/xlink" version="1.1"><rect x="0" y="0" width="690" height="190" fill="#9a9a9a"></rect><defs><linearGradient id="grad1_0" x1="72.5%" y1="100%" x2="100%" y2="0%"><stop offset="-22.631578947368425%" stop-color="#020616" stop-opacity="1"></stop><stop offset="122.63157894736844%" stop-color="#020616" stop-opacity="1"></stop></linearGradient></defs><defs><linearGradient id="grad1_1" x1="72.5%" y1="100%" x2="100%" y2="0%"><stop offset="-22.631578947368425%" stop-color="#020616" stop-opacity="1"></stop><stop offset="122.63157894736844%" stop-color="#1a1d26" stop-opacity="1"></stop></linearGradient></defs><defs><linearGradient id="grad1_2" x1="72.5%" y1="100%" x2="100%" y2="0%"><stop offset="-22.631578947368425%" stop-color="#2d2f38" stop-opacity="1"></stop><stop offset="122.63157894736844%" stop-color="#1a1d26" stop-opacity="1"></stop></linearGradient></defs><defs><linearGradient id="grad1_3" x1="72.5%" y1="100%" x2="100%" y2="0%"><stop offset="-22.631578947368425%" stop-color="#2d2f38" stop-opacity="1"></stop><stop offset="122.63157894736844%" stop-color="#41434a" stop-opacity="1"></stop></linearGradient></defs><defs><linearGradient id="grad1_4" x1="72.5%" y1="100%" x2="100%" y2="0%"><stop offset="-22.631578947368425%" stop-color="#56575d" stop-opacity="1"></stop><stop offset="122.63157894736844%" stop-color="#41434a" stop-opacity="1"></stop></linearGradient></defs><defs><linearGradient id="grad1_5" x1="72.5%" y1="100%" x2="100%" y2="0%"><stop offset="-22.631578947368425%" stop-color="#56575d" stop-opacity="1"></stop><stop offset="122.63157894736844%" stop-color="#6c6d71" stop-opacity="1"></stop></linearGradient></defs><defs><linearGradient id="grad1_6" x1="72.5%" y1="100%" x2="100%" y2="0%"><stop offset="-22.631578947368425%" stop-color="#838385" stop-opacity="1"></stop><stop offset="122.63157894736844%" stop-color="#6c6d71" stop-opacity="1"></stop></linearGradient></defs><defs><linearGradient id="grad1_7" x1="72.5%" y1="100%" x2="100%" y2="0%"><stop offset="-22.631578947368425%" stop-color="#838385" stop-opacity="1"></stop><stop offset="122.63157894736844%" stop-color="#9a9a9a" stop-opacity="1"></stop></linearGradient></defs><defs><linearGradient id="grad2_0" x1="0%" y1="100%" x2="27.5%" y2="0%"><stop offset="-22.631578947368425%" stop-color="#020616" stop-opacity="1"></stop><stop offset="122.63157894736844%" stop-color="#020616" stop-opacity="1"></stop></linearGradient></defs><defs><linearGradient id="grad2_1" x1="0%" y1="100%" x2="27.5%" y2="0%"><stop offset="-22.631578947368425%" stop-color="#1a1d26" stop-opacity="1"></stop><stop offset="122.63157894736844%" stop-color="#020616" stop-opacity="1"></stop></linearGradient></defs><defs><linearGradient id="grad2_2" x1="0%" y1="100%" x2="27.5%" y2="0%"><stop offset="-22.631578947368425%" stop-color="#1a1d26" stop-opacity="1"></stop><stop offset="122.63157894736844%" stop-color="#2d2f38" stop-opacity="1"></stop></linearGradient></defs><defs><linearGradient id="grad2_3" x1="0%" y1="100%" x2="27.5%" y2="0%"><stop offset="-22.631578947368425%" stop-color="#41434a" stop-opacity="1"></stop><stop offset="122.63157894736844%" stop-color="#2d2f38" stop-opacity="1"></stop></linearGradient></defs><defs><linearGradient id="grad2_4" x1="0%" y1="100%" x2="27.5%" y2="0%"><stop offset="-22.631578947368425%" stop-color="#41434a" stop-opacity="1"></stop><stop offset="122.63157894736844%" stop-color="#56575d" stop-opacity="1"></stop></linearGradient></defs><defs><linearGradient id="grad2_5" x1="0%" y1="100%" x2="27.5%" y2="0%"><stop offset="-22.631578947368425%" stop-color="#6c6d71" stop-opacity="1"></stop><stop offset="122.63157894736844%" stop-color="#56575d" stop-opacity="1"></stop></linearGradient></defs><defs><linearGradient id="grad2_6" x1="0%" y1="100%" x2="27.5%" y2="0%"><stop offset="-22.631578947368425%" stop-color="#6c6d71" stop-opacity="1"></stop><stop offset="122.63157894736844%" stop-color="#838385" stop-opacity="1"></stop></linearGradient></defs><defs><linearGradient id="grad2_7" x1="0%" y1="100%" x2="27.5%" y2="0%"><stop offset="-22.631578947368425%" stop-color="#9a9a9a" stop-opacity="1"></stop><stop offset="122.63157894736844%" stop-color="#838385" stop-opacity="1"></stop></linearGradient></defs><g transform="translate(690, 190)"><path d="M-171 0C-169.1 -22.5 -167.2 -45 -158 -65.4C-148.7 -85.9 -132.1 -104.3 -113.1 -113.1C-94.2 -122 -72.8 -121.3 -53.6 -129.3C-34.3 -137.4 -17.2 -154.2 0 -171L0 0Z" fill="#8e8e8f"></path><path d="M-149.6 0C-148 -19.7 -146.3 -39.4 -138.2 -57.3C-130.1 -75.2 -115.6 -91.3 -99 -99C-82.4 -106.7 -63.7 -106.1 -46.9 -113.2C-30 -120.2 -15 -134.9 0 -149.6L0 0Z" fill="#77787b"></path><path d="M-128.2 0C-126.8 -16.9 -125.4 -33.7 -118.5 -49.1C-111.5 -64.4 -99.1 -78.2 -84.9 -84.9C-70.6 -91.5 -54.6 -91 -40.2 -97C-25.7 -103 -12.9 -115.6 0 -128.2L0 0Z" fill="#616267"></path><path d="M-106.9 0C-105.7 -14.1 -104.5 -28.1 -98.7 -40.9C-93 -53.7 -82.6 -65.2 -70.7 -70.7C-58.9 -76.2 -45.5 -75.8 -33.5 -80.8C-21.5 -85.9 -10.7 -96.4 0 -106.9L0 0Z" fill="#4b4d53"></path><path d="M-85.5 0C-84.6 -11.2 -83.6 -22.5 -79 -32.7C-74.4 -42.9 -66.1 -52.1 -56.6 -56.6C-47.1 -61 -36.4 -60.6 -26.8 -64.7C-17.2 -68.7 -8.6 -77.1 0 -85.5L0 0Z" fill="#373941"></path><path d="M-64.1 0C-63.4 -8.4 -62.7 -16.9 -59.2 -24.5C-55.8 -32.2 -49.5 -39.1 -42.4 -42.4C-35.3 -45.7 -27.3 -45.5 -20.1 -48.5C-12.9 -51.5 -6.4 -57.8 0 -64.1L0 0Z" fill="#23262f"></path><path d="M-42.7 0C-42.3 -5.6 -41.8 -11.2 -39.5 -16.4C-37.2 -21.5 -33 -26.1 -28.3 -28.3C-23.5 -30.5 -18.2 -30.3 -13.4 -32.3C-8.6 -34.3 -4.3 -38.5 0 -42.7L0 0Z" fill="#11131e"></path><path d="M-21.4 0C-21.1 -2.8 -20.9 -5.6 -19.7 -8.2C-18.6 -10.7 -16.5 -13 -14.1 -14.1C-11.8 -15.2 -9.1 -15.2 -6.7 -16.2C-4.3 -17.2 -2.1 -19.3 0 -21.4L0 0Z" fill="#020616"></path></g><g transform="translate(0, 0)"><path d="M171 0C170.7 24.2 170.3 48.4 158 65.4C145.7 82.5 121.4 92.3 103.2 103.2C85.1 114.2 73.2 126.2 57 137.7C40.8 149.1 20.4 160.1 0 171L0 0Z" fill="#8e8e8f"></path><path d="M149.6 0C149.3 21.2 149 42.4 138.2 57.3C127.5 72.2 106.2 80.8 90.3 90.3C74.5 99.9 64 110.4 49.9 120.5C35.7 130.5 17.9 140.1 0 149.6L0 0Z" fill="#77787b"></path><path d="M128.3 0C128 18.2 127.7 36.3 118.5 49.1C109.2 61.8 91 69.2 77.4 77.4C63.8 85.6 54.9 94.6 42.8 103.2C30.6 111.8 15.3 120 0 128.3L0 0Z" fill="#616267"></path><path d="M106.9 0C106.7 15.1 106.4 30.3 98.7 40.9C91 51.5 75.8 57.7 64.5 64.5C53.2 71.4 45.7 78.9 35.6 86C25.5 93.2 12.8 100 0 106.9L0 0Z" fill="#4b4d53"></path><path d="M85.5 0C85.3 12.1 85.2 24.2 79 32.7C72.8 41.2 60.7 46.2 51.6 51.6C42.6 57.1 36.6 63.1 28.5 68.8C20.4 74.6 10.2 80 0 85.5L0 0Z" fill="#373941"></path><path d="M64.1 0C64 9.1 63.9 18.2 59.2 24.5C54.6 30.9 45.5 34.6 38.7 38.7C31.9 42.8 27.4 47.3 21.4 51.6C15.3 55.9 7.7 60 0 64.1L0 0Z" fill="#23262f"></path><path d="M42.8 0C42.7 6.1 42.6 12.1 39.5 16.4C36.4 20.6 30.3 23.1 25.8 25.8C21.3 28.5 18.3 31.5 14.3 34.4C10.2 37.3 5.1 40 0 42.8L0 0Z" fill="#11131e"></path><path d="M21.4 0C21.3 3 21.3 6.1 19.7 8.2C18.2 10.3 15.2 11.5 12.9 12.9C10.6 14.3 9.1 15.8 7.1 17.2C5.1 18.6 2.6 20 0 21.4L0 0Z" fill="#020616"></path></g></svg>