<svg id="visual" viewBox="0 0 900 600" width="900" height="600" xmlns="http://www.w3.org/2000/svg" xmlns:xlink="http://www.w3.org/1999/xlink" version="1.1"><g stroke-width="1" stroke-linejoin="bevel"><path d="M463 291L369 226L409 327Z" fill="#246688" stroke="#246688"></path><path d="M463 291L513 215L369 226Z" fill="#277297" stroke="#277297"></path><path d="M369 226L303 327L409 327Z" fill="#1d4e6b" stroke="#1d4e6b"></path><path d="M431 91L314 190L369 226Z" fill="#297ea6" stroke="#297ea6"></path><path d="M369 226L314 190L303 327Z" fill="#205a7a" stroke="#205a7a"></path><path d="M324 399L412 397L409 327Z" fill="#112e42" stroke="#112e42"></path><path d="M409 327L471 413L463 291Z" fill="#277297" stroke="#277297"></path><path d="M463 291L576 339L513 215Z" fill="#19435d" stroke="#19435d"></path><path d="M303 327L324 399L409 327Z" fill="#19435d" stroke="#19435d"></path><path d="M460 473L471 413L412 397Z" fill="#00101c" stroke="#00101c"></path><path d="M412 397L471 413L409 327Z" fill="#1d4e6b" stroke="#1d4e6b"></path><path d="M513 215L480 121L369 226Z" fill="#205a7a" stroke="#205a7a"></path><path d="M480 121L431 91L369 226Z" fill="#205a7a" stroke="#205a7a"></path><path d="M471 413L576 339L463 291Z" fill="#15384f" stroke="#15384f"></path><path d="M513 215L583 126L480 121Z" fill="#205a7a" stroke="#205a7a"></path><path d="M385 483L460 473L412 397Z" fill="#1d4e6b" stroke="#1d4e6b"></path><path d="M592 486L634 398L576 339Z" fill="#19435d" stroke="#19435d"></path><path d="M314 190L205 323L303 327Z" fill="#19435d" stroke="#19435d"></path><path d="M303 327L205 323L324 399Z" fill="#0c2435" stroke="#0c2435"></path><path d="M324 399L385 483L412 397Z" fill="#277297" stroke="#277297"></path><path d="M277 497L385 483L324 399Z" fill="#00101c" stroke="#00101c"></path><path d="M576 339L631 235L513 215Z" fill="#205a7a" stroke="#205a7a"></path><path d="M631 235L583 126L513 215Z" fill="#15384f" stroke="#15384f"></path><path d="M460 0L394 0L431 91Z" fill="#00101c" stroke="#00101c"></path><path d="M431 91L294 70L314 190Z" fill="#081a28" stroke="#081a28"></path><path d="M314 190L177 184L205 323Z" fill="#246688" stroke="#246688"></path><path d="M294 70L177 184L314 190Z" fill="#1d4e6b" stroke="#1d4e6b"></path><path d="M576 339L662 324L631 235Z" fill="#112e42" stroke="#112e42"></path><path d="M634 398L662 324L576 339Z" fill="#297ea6" stroke="#297ea6"></path><path d="M592 486L576 339L471 413Z" fill="#19435d" stroke="#19435d"></path><path d="M184 438L277 497L324 399Z" fill="#19435d" stroke="#19435d"></path><path d="M460 0L431 91L480 121Z" fill="#277297" stroke="#277297"></path><path d="M431 91L394 0L294 70Z" fill="#19435d" stroke="#19435d"></path><path d="M577 0L460 0L480 121Z" fill="#1d4e6b" stroke="#1d4e6b"></path><path d="M66 360L184 438L205 323Z" fill="#15384f" stroke="#15384f"></path><path d="M205 323L184 438L324 399Z" fill="#0c2435" stroke="#0c2435"></path><path d="M460 473L592 486L471 413Z" fill="#205a7a" stroke="#205a7a"></path><path d="M467 600L592 486L460 473Z" fill="#19435d" stroke="#19435d"></path><path d="M467 600L460 473L385 483Z" fill="#081a28" stroke="#081a28"></path><path d="M162 99L133 184L177 184Z" fill="#0c2435" stroke="#0c2435"></path><path d="M177 184L95 280L205 323Z" fill="#297ea6" stroke="#297ea6"></path><path d="M394 0L290 0L294 70Z" fill="#246688" stroke="#246688"></path><path d="M294 70L162 99L177 184Z" fill="#205a7a" stroke="#205a7a"></path><path d="M184 438L186 467L277 497Z" fill="#1d4e6b" stroke="#1d4e6b"></path><path d="M103 533L186 467L184 438Z" fill="#081a28" stroke="#081a28"></path><path d="M189 0L162 99L294 70Z" fill="#277297" stroke="#277297"></path><path d="M662 324L710 196L631 235Z" fill="#1d4e6b" stroke="#1d4e6b"></path><path d="M631 235L710 196L583 126Z" fill="#081a28" stroke="#081a28"></path><path d="M583 126L577 0L480 121Z" fill="#277297" stroke="#277297"></path><path d="M0 220L95 280L133 184Z" fill="#00101c" stroke="#00101c"></path><path d="M133 184L95 280L177 184Z" fill="#205a7a" stroke="#205a7a"></path><path d="M710 196L663 80L583 126Z" fill="#1d4e6b" stroke="#1d4e6b"></path><path d="M663 80L577 0L583 126Z" fill="#297ea6" stroke="#297ea6"></path><path d="M592 486L686 430L634 398Z" fill="#277297" stroke="#277297"></path><path d="M634 398L686 430L662 324Z" fill="#00101c" stroke="#00101c"></path><path d="M662 324L797 326L710 196Z" fill="#277297" stroke="#277297"></path><path d="M279 600L386 600L277 497Z" fill="#00101c" stroke="#00101c"></path><path d="M277 497L386 600L385 483Z" fill="#246688" stroke="#246688"></path><path d="M386 600L467 600L385 483Z" fill="#277297" stroke="#277297"></path><path d="M592 486L707 533L686 430Z" fill="#1d4e6b" stroke="#1d4e6b"></path><path d="M290 0L189 0L294 70Z" fill="#1d4e6b" stroke="#1d4e6b"></path><path d="M162 99L91 127L133 184Z" fill="#081a28" stroke="#081a28"></path><path d="M89 0L91 127L162 99Z" fill="#205a7a" stroke="#205a7a"></path><path d="M0 328L66 360L95 280Z" fill="#19435d" stroke="#19435d"></path><path d="M95 280L66 360L205 323Z" fill="#00101c" stroke="#00101c"></path><path d="M190 600L277 497L186 467Z" fill="#1d4e6b" stroke="#1d4e6b"></path><path d="M190 600L279 600L277 497Z" fill="#19435d" stroke="#19435d"></path><path d="M467 600L577 600L592 486Z" fill="#0c2435" stroke="#0c2435"></path><path d="M686 430L797 326L662 324Z" fill="#19435d" stroke="#19435d"></path><path d="M816 67L695 0L663 80Z" fill="#00101c" stroke="#00101c"></path><path d="M793 415L797 326L686 430Z" fill="#00101c" stroke="#00101c"></path><path d="M816 67L663 80L710 196Z" fill="#205a7a" stroke="#205a7a"></path><path d="M663 80L695 0L577 0Z" fill="#246688" stroke="#246688"></path><path d="M797 326L794 188L710 196Z" fill="#0c2435" stroke="#0c2435"></path><path d="M103 533L190 600L186 467Z" fill="#081a28" stroke="#081a28"></path><path d="M577 600L707 533L592 486Z" fill="#00101c" stroke="#00101c"></path><path d="M66 360L103 533L184 438Z" fill="#19435d" stroke="#19435d"></path><path d="M707 533L793 415L686 430Z" fill="#205a7a" stroke="#205a7a"></path><path d="M0 82L0 220L91 127Z" fill="#081a28" stroke="#081a28"></path><path d="M91 127L0 220L133 184Z" fill="#297ea6" stroke="#297ea6"></path><path d="M66 360L0 421L103 533Z" fill="#205a7a" stroke="#205a7a"></path><path d="M0 220L0 328L95 280Z" fill="#081a28" stroke="#081a28"></path><path d="M189 0L89 0L162 99Z" fill="#0c2435" stroke="#0c2435"></path><path d="M0 328L0 421L66 360Z" fill="#00101c" stroke="#00101c"></path><path d="M577 600L706 600L707 533Z" fill="#277297" stroke="#277297"></path><path d="M707 533L833 498L793 415Z" fill="#277297" stroke="#277297"></path><path d="M89 0L0 82L91 127Z" fill="#19435d" stroke="#19435d"></path><path d="M794 188L816 67L710 196Z" fill="#1d4e6b" stroke="#1d4e6b"></path><path d="M900 120L816 67L794 188Z" fill="#19435d" stroke="#19435d"></path><path d="M900 228L794 188L797 326Z" fill="#112e42" stroke="#112e42"></path><path d="M0 421L0 480L103 533Z" fill="#0c2435" stroke="#0c2435"></path><path d="M103 533L83 600L190 600Z" fill="#15384f" stroke="#15384f"></path><path d="M0 600L83 600L103 533Z" fill="#112e42" stroke="#112e42"></path><path d="M786 600L833 498L707 533Z" fill="#277297" stroke="#277297"></path><path d="M900 430L900 289L797 326Z" fill="#246688" stroke="#246688"></path><path d="M89 0L0 0L0 82Z" fill="#246688" stroke="#246688"></path><path d="M900 430L797 326L793 415Z" fill="#15384f" stroke="#15384f"></path><path d="M900 289L900 228L797 326Z" fill="#19435d" stroke="#19435d"></path><path d="M706 600L786 600L707 533Z" fill="#15384f" stroke="#15384f"></path><path d="M900 0L834 0L816 67Z" fill="#19435d" stroke="#19435d"></path><path d="M816 67L834 0L695 0Z" fill="#0c2435" stroke="#0c2435"></path><path d="M900 228L900 120L794 188Z" fill="#246688" stroke="#246688"></path><path d="M900 476L900 430L833 498Z" fill="#112e42" stroke="#112e42"></path><path d="M833 498L900 430L793 415Z" fill="#1d4e6b" stroke="#1d4e6b"></path><path d="M0 480L0 600L103 533Z" fill="#0c2435" stroke="#0c2435"></path><path d="M900 600L900 476L833 498Z" fill="#00101c" stroke="#00101c"></path><path d="M900 120L900 0L816 67Z" fill="#205a7a" stroke="#205a7a"></path><path d="M786 600L900 600L833 498Z" fill="#0c2435" stroke="#0c2435"></path></g></svg>