<svg id="visual" viewBox="0 0 690 190" width="690" height="190" xmlns="http://www.w3.org/2000/svg" xmlns:xlink="http://www.w3.org/1999/xlink" version="1.1"><path d="M0 31L8.8 31C17.7 31 35.3 31 53 30.2C70.7 29.3 88.3 27.7 106 25.5C123.7 23.3 141.3 20.7 159 20.3C176.7 20 194.3 22 212 23.3C229.7 24.7 247.3 25.3 265 27.2C282.7 29 300.3 32 318.2 32.7C336 33.3 354 31.7 371.8 31.7C389.7 31.7 407.3 33.3 425 31.3C442.7 29.3 460.3 23.7 478 21.5C495.7 19.3 513.3 20.7 531 22C548.7 23.3 566.3 24.7 584 26C601.7 27.3 619.3 28.7 637 30.2C654.7 31.7 672.3 33.3 681.2 34.2L690 35L690 0L681.2 0C672.3 0 654.7 0 637 0C619.3 0 601.7 0 584 0C566.3 0 548.7 0 531 0C513.3 0 495.7 0 478 0C460.3 0 442.7 0 425 0C407.3 0 389.7 0 371.8 0C354 0 336 0 318.2 0C300.3 0 282.7 0 265 0C247.3 0 229.7 0 212 0C194.3 0 176.7 0 159 0C141.3 0 123.7 0 106 0C88.3 0 70.7 0 53 0C35.3 0 17.7 0 8.8 0L0 0Z" fill="#004cbb"></path><path d="M0 68L8.8 71.7C17.7 75.3 35.3 82.7 53 85.8C70.7 89 88.3 88 106 87.2C123.7 86.3 141.3 85.7 159 88.5C176.7 91.3 194.3 97.7 212 95.3C229.7 93 247.3 82 265 76.8C282.7 71.7 300.3 72.3 318.2 76.8C336 81.3 354 89.7 371.8 90.7C389.7 91.7 407.3 85.3 425 81.8C442.7 78.3 460.3 77.7 478 79.8C495.7 82 513.3 87 531 85.5C548.7 84 566.3 76 584 73.5C601.7 71 619.3 74 637 78.7C654.7 83.3 672.3 89.7 681.2 92.8L690 96L690 33L681.2 32.2C672.3 31.3 654.7 29.7 637 28.2C619.3 26.7 601.7 25.3 584 24C566.3 22.7 548.7 21.3 531 20C513.3 18.7 495.7 17.3 478 19.5C460.3 21.7 442.7 27.3 425 29.3C407.3 31.3 389.7 29.7 371.8 29.7C354 29.7 336 31.3 318.2 30.7C300.3 30 282.7 27 265 25.2C247.3 23.3 229.7 22.7 212 21.3C194.3 20 176.7 18 159 18.3C141.3 18.7 123.7 21.3 106 23.5C88.3 25.7 70.7 27.3 53 28.2C35.3 29 17.7 29 8.8 29L0 29Z" fill="#2573ff"></path><path d="M0 138L8.8 135.8C17.7 133.7 35.3 129.3 53 130.5C70.7 131.7 88.3 138.3 106 139.5C123.7 140.7 141.3 136.3 159 137.7C176.7 139 194.3 146 212 145C229.7 144 247.3 135 265 133.7C282.7 132.3 300.3 138.7 318.2 139.7C336 140.7 354 136.3 371.8 133.8C389.7 131.3 407.3 130.7 425 130C442.7 129.3 460.3 128.7 478 128C495.7 127.3 513.3 126.7 531 127.3C548.7 128 566.3 130 584 131.7C601.7 133.3 619.3 134.7 637 135C654.7 135.3 672.3 134.7 681.2 134.3L690 134L690 94L681.2 90.8C672.3 87.7 654.7 81.3 637 76.7C619.3 72 601.7 69 584 71.5C566.3 74 548.7 82 531 83.5C513.3 85 495.7 80 478 77.8C460.3 75.7 442.7 76.3 425 79.8C407.3 83.3 389.7 89.7 371.8 88.7C354 87.7 336 79.3 318.2 74.8C300.3 70.3 282.7 69.7 265 74.8C247.3 80 229.7 91 212 93.3C194.3 95.7 176.7 89.3 159 86.5C141.3 83.7 123.7 84.3 106 85.2C88.3 86 70.7 87 53 83.8C35.3 80.7 17.7 73.3 8.8 69.7L0 66Z" fill="#6198ff"></path><path d="M0 164L8.8 162.5C17.7 161 35.3 158 53 158.3C70.7 158.7 88.3 162.3 106 163.3C123.7 164.3 141.3 162.7 159 163.3C176.7 164 194.3 167 212 163.5C229.7 160 247.3 150 265 149.3C282.7 148.7 300.3 157.3 318.2 160.5C336 163.7 354 161.3 371.8 158.2C389.7 155 407.3 151 425 150.7C442.7 150.3 460.3 153.7 478 154.3C495.7 155 513.3 153 531 153.3C548.7 153.7 566.3 156.3 584 156.7C601.7 157 619.3 155 637 153.3C654.7 151.7 672.3 150.3 681.2 149.7L690 149L690 132L681.2 132.3C672.3 132.7 654.7 133.3 637 133C619.3 132.7 601.7 131.3 584 129.7C566.3 128 548.7 126 531 125.3C513.3 124.7 495.7 125.3 478 126C460.3 126.7 442.7 127.3 425 128C407.3 128.7 389.7 129.3 371.8 131.8C354 134.3 336 138.7 318.2 137.7C300.3 136.7 282.7 130.3 265 131.7C247.3 133 229.7 142 212 143C194.3 144 176.7 137 159 135.7C141.3 134.3 123.7 138.7 106 137.5C88.3 136.3 70.7 129.7 53 128.5C35.3 127.3 17.7 131.7 8.8 133.8L0 136Z" fill="#2573ff"></path><path d="M0 191L8.8 191C17.7 191 35.3 191 53 191C70.7 191 88.3 191 106 191C123.7 191 141.3 191 159 191C176.7 191 194.3 191 212 191C229.7 191 247.3 191 265 191C282.7 191 300.3 191 318.2 191C336 191 354 191 371.8 191C389.7 191 407.3 191 425 191C442.7 191 460.3 191 478 191C495.7 191 513.3 191 531 191C548.7 191 566.3 191 584 191C601.7 191 619.3 191 637 191C654.7 191 672.3 191 681.2 191L690 191L690 147L681.2 147.7C672.3 148.3 654.7 149.7 637 151.3C619.3 153 601.7 155 584 154.7C566.3 154.3 548.7 151.7 531 151.3C513.3 151 495.7 153 478 152.3C460.3 151.7 442.7 148.3 425 148.7C407.3 149 389.7 153 371.8 156.2C354 159.3 336 161.7 318.2 158.5C300.3 155.3 282.7 146.7 265 147.3C247.3 148 229.7 158 212 161.5C194.3 165 176.7 162 159 161.3C141.3 160.7 123.7 162.3 106 161.3C88.3 160.3 70.7 156.7 53 156.3C35.3 156 17.7 159 8.8 160.5L0 162Z" fill="#004cbb"></path></svg>