<svg id="visual" viewBox="0 0 690 190" width="690" height="190" xmlns="http://www.w3.org/2000/svg" xmlns:xlink="http://www.w3.org/1999/xlink" version="1.1"><rect x="0" y="0" width="690" height="190" fill="#cdd5d5"></rect><defs><linearGradient id="grad1_0" x1="72.5%" y1="0%" x2="100%" y2="100%"><stop offset="-22.631578947368425%" stop-color="#e8a64e" stop-opacity="1"></stop><stop offset="122.63157894736844%" stop-color="#e8a64e" stop-opacity="1"></stop></linearGradient></defs><defs><linearGradient id="grad1_1" x1="72.5%" y1="0%" x2="100%" y2="100%"><stop offset="-22.631578947368425%" stop-color="#e8a64e" stop-opacity="1"></stop><stop offset="122.63157894736844%" stop-color="#cdd5d5" stop-opacity="1"></stop></linearGradient></defs><defs><linearGradient id="grad2_0" x1="0%" y1="0%" x2="27.5%" y2="100%"><stop offset="-22.631578947368425%" stop-color="#e8a64e" stop-opacity="1"></stop><stop offset="122.63157894736844%" stop-color="#e8a64e" stop-opacity="1"></stop></linearGradient></defs><defs><linearGradient id="grad2_1" x1="0%" y1="0%" x2="27.5%" y2="100%"><stop offset="-22.631578947368425%" stop-color="#cdd5d5" stop-opacity="1"></stop><stop offset="122.63157894736844%" stop-color="#e8a64e" stop-opacity="1"></stop></linearGradient></defs><g transform="translate(690, 0)"><path d="M0 133C-19.1 122.5 -38.1 112 -59 102.2C-79.9 92.4 -102.5 83.4 -115.2 66.5C-127.8 49.6 -130.4 24.8 -133 0L0 0Z" fill="#a8cd9c"></path><path d="M0 66.5C-9.5 61.2 -19.1 56 -29.5 51.1C-39.9 46.2 -51.3 41.7 -57.6 33.3C-63.9 24.8 -65.2 12.4 -66.5 0L0 0Z" fill="#e8a64e"></path></g><g transform="translate(0, 190)"><path d="M0 -133C22.3 -128 44.5 -123 65 -112.6C85.5 -102.1 104.1 -86.2 115.2 -66.5C126.2 -46.8 129.6 -23.4 133 0L0 0Z" fill="#a8cd9c"></path><path d="M0 -66.5C11.1 -64 22.3 -61.5 32.5 -56.3C42.7 -51.1 52.1 -43.1 57.6 -33.3C63.1 -23.4 64.8 -11.7 66.5 0L0 0Z" fill="#e8a64e"></path></g></svg>