<svg id="visual" viewBox="0 0 690 190" width="690" height="190" xmlns="http://www.w3.org/2000/svg" xmlns:xlink="http://www.w3.org/1999/xlink" version="1.1"><rect x="0" y="0" width="690" height="190" fill="#cdd5d5"></rect><defs><linearGradient id="grad1_0" x1="72.5%" y1="100%" x2="100%" y2="0%"><stop offset="-22.631578947368425%" stop-color="#e8a64e" stop-opacity="1"></stop><stop offset="122.63157894736844%" stop-color="#e8a64e" stop-opacity="1"></stop></linearGradient></defs><defs><linearGradient id="grad1_1" x1="72.5%" y1="100%" x2="100%" y2="0%"><stop offset="-22.631578947368425%" stop-color="#e8a64e" stop-opacity="1"></stop><stop offset="122.63157894736844%" stop-color="#cdd5d5" stop-opacity="1"></stop></linearGradient></defs><defs><linearGradient id="grad2_0" x1="0%" y1="100%" x2="27.5%" y2="0%"><stop offset="-22.631578947368425%" stop-color="#e8a64e" stop-opacity="1"></stop><stop offset="122.63157894736844%" stop-color="#e8a64e" stop-opacity="1"></stop></linearGradient></defs><defs><linearGradient id="grad2_1" x1="0%" y1="100%" x2="27.5%" y2="0%"><stop offset="-22.631578947368425%" stop-color="#cdd5d5" stop-opacity="1"></stop><stop offset="122.63157894736844%" stop-color="#e8a64e" stop-opacity="1"></stop></linearGradient></defs><g transform="translate(690, 190)"><path d="M-133 0C-122.5 -19.1 -112 -38.1 -102.2 -59C-92.4 -79.9 -83.4 -102.5 -66.5 -115.2C-49.6 -127.8 -24.8 -130.4 0 -133L0 0Z" fill="#a8cd9c"></path><path d="M-66.5 0C-61.2 -9.5 -56 -19.1 -51.1 -29.5C-46.2 -39.9 -41.7 -51.3 -33.3 -57.6C-24.8 -63.9 -12.4 -65.2 0 -66.5L0 0Z" fill="#e8a64e"></path></g><g transform="translate(0, 0)"><path d="M133 0C128 22.3 123 44.5 112.6 65C102.1 85.5 86.2 104.1 66.5 115.2C46.8 126.2 23.4 129.6 0 133L0 0Z" fill="#a8cd9c"></path><path d="M66.5 0C64 11.1 61.5 22.3 56.3 32.5C51.1 42.7 43.1 52.1 33.3 57.6C23.4 63.1 11.7 64.8 0 66.5L0 0Z" fill="#e8a64e"></path></g></svg>